<svg width="248" height="42" viewBox="0 0 248 42" fill="none" xmlns="http://www.w3.org/2000/svg">
<path d="M24.84 21.5702C25.1 21.5702 25.3 21.7002 25.44 21.9602C25.6 22.2002 25.68 22.5102 25.68 22.8902C25.68 23.3502 25.61 23.7102 25.47 23.9702C25.33 24.2302 25.11 24.4602 24.81 24.6602C23.63 25.4402 21.75 26.7202 19.17 28.5002C18.39 32.6402 17.38 35.9002 16.14 38.2802C14.9 40.6602 13.33 41.8502 11.43 41.8502C10.41 41.8502 9.58002 41.5302 8.94002 40.8902C8.30002 40.2702 7.98002 39.4502 7.98002 38.4302C7.98002 37.4902 8.19002 36.5402 8.61002 35.5802C9.03002 34.6202 9.81002 33.5102 10.95 32.2502C12.11 30.9902 13.74 29.5502 15.84 27.9302L15.93 27.3602C14.35 28.0202 12.8 28.3502 11.28 28.3502C9.04002 28.3502 7.07002 27.9202 5.37002 27.0602C3.67002 26.1802 2.35002 24.9402 1.41002 23.3402C0.470017 21.7402 1.7181e-05 19.8802 1.7181e-05 17.7602C1.7181e-05 14.8002 0.560017 12.1902 1.68002 9.93019C2.80002 7.65019 4.34002 5.89019 6.30002 4.65019C8.28002 3.39019 10.49 2.76019 12.93 2.76019C15.27 2.76019 17.02 3.31019 18.18 4.41019C19.36 5.49019 19.95 6.93019 19.95 8.73019C19.95 9.91019 19.73 10.8602 19.29 11.5802C18.87 12.2802 18.26 12.6302 17.46 12.6302C16.92 12.6302 16.48 12.5002 16.14 12.2402C15.82 11.9802 15.66 11.6202 15.66 11.1602C15.66 10.9602 15.7 10.6202 15.78 10.1402C15.9 9.58019 15.96 9.14019 15.96 8.82019C15.96 7.98019 15.7 7.33019 15.18 6.87019C14.68 6.41019 13.83 6.18019 12.63 6.18019C11.17 6.18019 9.81002 6.60019 8.55002 7.44019C7.31002 8.28019 6.31002 9.54019 5.55002 11.2202C4.79002 12.8802 4.41002 14.8802 4.41002 17.2202C4.41002 19.6202 5.06002 21.4802 6.36002 22.8002C7.68002 24.1002 9.58002 24.7502 12.06 24.7502C13.44 24.7502 14.88 24.4402 16.38 23.8202L16.8 20.1602H13.74C13.18 20.1602 12.75 20.0302 12.45 19.7702C12.15 19.4902 12 19.0402 12 18.4202C12 17.8602 12.15 17.4202 12.45 17.1002C12.75 16.7802 13.15 16.6202 13.65 16.6202H19.26C19.7 16.6202 20.06 16.7702 20.34 17.0702C20.64 17.3502 20.76 17.7602 20.7 18.3002C20.64 18.9402 20.44 20.3902 20.1 22.6502L19.77 24.9302C21.37 23.7302 22.83 22.6902 24.15 21.8102C24.41 21.6502 24.64 21.5702 24.84 21.5702ZM11.76 38.9402C12.28 38.9402 12.85 38.3502 13.47 37.1702C14.09 35.9902 14.67 34.0902 15.21 31.4702C13.69 32.7702 12.59 33.9402 11.91 34.9802C11.25 36.0402 10.92 36.9702 10.92 37.7702C10.92 38.5502 11.2 38.9402 11.76 38.9402ZM37.2164 21.5102C37.4764 21.5102 37.6764 21.6302 37.8164 21.8702C37.9764 22.1102 38.0564 22.4402 38.0564 22.8602C38.0564 23.6602 37.8664 24.2802 37.4864 24.7202C36.7464 25.6202 35.6964 26.4502 34.3364 27.2102C32.9964 27.9702 31.5564 28.3502 30.0164 28.3502C27.9164 28.3502 26.2864 27.7802 25.1264 26.6402C23.9664 25.5002 23.3864 23.9402 23.3864 21.9602C23.3864 20.5802 23.6764 19.3002 24.2564 18.1202C24.8364 16.9202 25.6364 15.9702 26.6564 15.2702C27.6964 14.5702 28.8664 14.2202 30.1664 14.2202C31.3264 14.2202 32.2564 14.5702 32.9564 15.2702C33.6564 15.9502 34.0064 16.8802 34.0064 18.0602C34.0064 19.4402 33.5064 20.6302 32.5064 21.6302C31.5264 22.6102 29.8564 23.3902 27.4964 23.9702C27.9964 24.8902 28.9464 25.3502 30.3464 25.3502C31.2464 25.3502 32.2664 25.0402 33.4064 24.4202C34.5664 23.7802 35.5664 22.9502 36.4064 21.9302C36.6464 21.6502 36.9164 21.5102 37.2164 21.5102ZM29.6564 17.1602C28.9164 17.1602 28.2864 17.5902 27.7664 18.4502C27.2664 19.3102 27.0164 20.3502 27.0164 21.5702V21.6302C28.1964 21.3502 29.1264 20.9302 29.8064 20.3702C30.4864 19.8102 30.8264 19.1602 30.8264 18.4202C30.8264 18.0402 30.7164 17.7402 30.4964 17.5202C30.2964 17.2802 30.0164 17.1602 29.6564 17.1602ZM40.5638 17.0702C40.5238 18.0702 40.5038 18.8502 40.5038 19.4102C40.5038 20.8502 40.5738 21.9802 40.7138 22.8002C40.8738 23.6002 41.1238 24.1802 41.4638 24.5402C41.8238 24.8802 42.3138 25.0502 42.9338 25.0502C43.2538 25.0502 43.6338 24.9502 44.0738 24.7502C44.5138 24.5502 44.9138 24.2902 45.2738 23.9702C45.4938 23.7702 45.7138 23.6702 45.9338 23.6702C46.1738 23.6702 46.3638 23.8102 46.5038 24.0902C46.6638 24.3502 46.7438 24.6702 46.7438 25.0502C46.7438 25.4302 46.6638 25.8002 46.5038 26.1602C46.3638 26.5202 46.1438 26.8202 45.8438 27.0602C44.8038 27.9202 43.6238 28.3502 42.3038 28.3502C40.4038 28.3502 39.0138 27.5602 38.1338 25.9802C37.2538 24.3802 36.8138 22.3002 36.8138 19.7402C36.8138 18.8602 36.8438 17.9702 36.9038 17.0702H35.7338C35.1338 17.0702 34.7238 16.9602 34.5038 16.7402C34.3038 16.5202 34.2038 16.1702 34.2038 15.6902C34.2038 14.5702 34.6538 14.0102 35.5538 14.0102H37.2638C37.6038 11.8102 38.1238 9.80019 38.8238 7.98019C39.5238 6.16019 40.3638 4.71019 41.3438 3.63019C42.3438 2.55019 43.4138 2.01019 44.5538 2.01019C45.3938 2.01019 46.0538 2.38019 46.5338 3.12019C47.0138 3.86019 47.2538 4.79019 47.2538 5.91019C47.2538 9.0102 45.9538 11.7102 43.3538 14.0102H46.7138C47.0338 14.0102 47.2638 14.0802 47.4038 14.2202C47.5438 14.3602 47.6138 14.6202 47.6138 15.0002C47.6138 16.3802 46.4838 17.0702 44.2238 17.0702H40.5638ZM43.7438 4.8902C43.4438 4.8902 43.1038 5.27019 42.7238 6.03019C42.3638 6.77019 42.0138 7.81019 41.6738 9.15019C41.3538 10.4702 41.0838 11.9402 40.8638 13.5602C42.0438 12.5402 42.9238 11.4002 43.5038 10.1402C44.1038 8.86019 44.4038 7.70019 44.4038 6.66019C44.4038 5.48019 44.1838 4.8902 43.7438 4.8902ZM59.8758 12.2402C59.0358 12.2402 58.4058 12.0502 57.9858 11.6702C57.5658 11.2702 57.3558 10.7202 57.3558 10.0202C57.3558 9.32019 57.6258 8.74019 58.1658 8.28019C58.7258 7.80019 59.4158 7.56019 60.2358 7.56019C60.9758 7.56019 61.5758 7.74019 62.0358 8.10019C62.4958 8.46019 62.7258 8.97019 62.7258 9.63019C62.7258 10.4302 62.4658 11.0702 61.9458 11.5502C61.4258 12.0102 60.7358 12.2402 59.8758 12.2402ZM59.6358 28.3502C58.3358 28.3502 57.3858 27.8902 56.7858 26.9702C56.2058 26.0502 55.9158 24.8302 55.9158 23.3102C55.9158 22.4102 56.0258 21.2602 56.2458 19.8602C56.4858 18.4402 56.7858 17.1202 57.1458 15.9002C57.3258 15.2602 57.5658 14.8202 57.8658 14.5802C58.1658 14.3402 58.6458 14.2202 59.3058 14.2202C60.3258 14.2202 60.8358 14.5602 60.8358 15.2402C60.8358 15.7402 60.6458 16.9002 60.2658 18.7202C59.7858 20.9202 59.5458 22.4102 59.5458 23.1902C59.5458 23.7902 59.6258 24.2502 59.7858 24.5702C59.9458 24.8902 60.2158 25.0502 60.5958 25.0502C60.9558 25.0502 61.4058 24.8002 61.9458 24.3002C62.4858 23.8002 63.2058 23.0102 64.1058 21.9302C64.3458 21.6502 64.6158 21.5102 64.9158 21.5102C65.1758 21.5102 65.3758 21.6302 65.5158 21.8702C65.6758 22.1102 65.7558 22.4402 65.7558 22.8602C65.7558 23.6602 65.5658 24.2802 65.1858 24.7202C63.2058 27.1402 61.3558 28.3502 59.6358 28.3502ZM68.2786 17.0702C68.2386 18.0702 68.2186 18.8502 68.2186 19.4102C68.2186 20.8502 68.2886 21.9802 68.4286 22.8002C68.5886 23.6002 68.8386 24.1802 69.1786 24.5402C69.5386 24.8802 70.0286 25.0502 70.6486 25.0502C70.9686 25.0502 71.3486 24.9502 71.7886 24.7502C72.2286 24.5502 72.6286 24.2902 72.9886 23.9702C73.2086 23.7702 73.4286 23.6702 73.6486 23.6702C73.8886 23.6702 74.0786 23.8102 74.2186 24.0902C74.3786 24.3502 74.4586 24.6702 74.4586 25.0502C74.4586 25.4302 74.3786 25.8002 74.2186 26.1602C74.0786 26.5202 73.8586 26.8202 73.5586 27.0602C72.5186 27.9202 71.3386 28.3502 70.0186 28.3502C68.1186 28.3502 66.7286 27.5602 65.8486 25.9802C64.9686 24.3802 64.5286 22.3002 64.5286 19.7402C64.5286 18.8602 64.5586 17.9702 64.6186 17.0702H63.4486C62.8486 17.0702 62.4386 16.9602 62.2186 16.7402C62.0186 16.5202 61.9186 16.1702 61.9186 15.6902C61.9186 14.5702 62.3686 14.0102 63.2686 14.0102H64.9786C65.3186 11.8102 65.8386 9.80019 66.5386 7.98019C67.2386 6.16019 68.0786 4.71019 69.0586 3.63019C70.0586 2.55019 71.1286 2.01019 72.2686 2.01019C73.1086 2.01019 73.7686 2.38019 74.2486 3.12019C74.7286 3.86019 74.9686 4.79019 74.9686 5.91019C74.9686 9.0102 73.6686 11.7102 71.0686 14.0102H74.4286C74.7486 14.0102 74.9786 14.0802 75.1186 14.2202C75.2586 14.3602 75.3286 14.6202 75.3286 15.0002C75.3286 16.3802 74.1986 17.0702 71.9386 17.0702H68.2786ZM71.4586 4.8902C71.1586 4.8902 70.8186 5.27019 70.4386 6.03019C70.0786 6.77019 69.7286 7.81019 69.3886 9.15019C69.0686 10.4702 68.7986 11.9402 68.5786 13.5602C69.7586 12.5402 70.6386 11.4002 71.2186 10.1402C71.8186 8.86019 72.1186 7.70019 72.1186 6.66019C72.1186 5.48019 71.8986 4.8902 71.4586 4.8902ZM99.6206 18.9902C99.8806 18.9902 100.081 19.1202 100.221 19.3802C100.361 19.6402 100.431 19.9702 100.431 20.3702C100.431 20.8702 100.361 21.2602 100.221 21.5402C100.081 21.8002 99.8606 21.9802 99.5606 22.0802C98.3606 22.5002 97.0406 22.7402 95.6006 22.8002C95.2006 24.4602 94.4406 25.8002 93.3206 26.8202C92.2206 27.8402 91.0006 28.3502 89.6606 28.3502C87.6406 28.3502 86.1706 27.5802 85.2506 26.0402C84.3306 24.5002 83.8706 22.2702 83.8706 19.3502C83.8706 16.7702 84.1906 13.9702 84.8306 10.9502C85.4706 7.91019 86.4006 5.33019 87.6206 3.21019C88.8606 1.07019 90.3306 0.000193596 92.0306 0.000193596C92.9506 0.000193596 93.6906 0.400194 94.2506 1.20019C94.8106 1.98019 95.0906 3.00019 95.0906 4.26019C95.0906 5.90019 94.7806 7.53019 94.1606 9.15019C93.5406 10.7702 92.5106 12.4702 91.0706 14.2502C92.4106 14.3502 93.5006 14.9102 94.3406 15.9302C95.1806 16.9302 95.6806 18.1702 95.8406 19.6502C96.7806 19.5902 97.9006 19.3902 99.2006 19.0502C99.3206 19.0102 99.4606 18.9902 99.6206 18.9902ZM91.3406 2.97019C90.9406 2.97019 90.5006 3.57019 90.0206 4.77019C89.5606 5.95019 89.1306 7.56019 88.7306 9.6002C88.3306 11.6402 88.0306 13.8702 87.8306 16.2902C89.1506 13.8702 90.2006 11.7402 90.9806 9.90019C91.7806 8.04019 92.1806 6.39019 92.1806 4.95019C92.1806 4.31019 92.1006 3.82019 91.9406 3.48019C91.8006 3.14019 91.6006 2.97019 91.3406 2.97019ZM89.7806 25.1702C90.4006 25.1702 90.9506 24.9102 91.4306 24.3902C91.9106 23.8702 92.2306 23.1202 92.3906 22.1402C91.7706 21.7202 91.2906 21.1702 90.9506 20.4902C90.6306 19.8102 90.4706 19.0902 90.4706 18.3302C90.4706 18.0502 90.5106 17.6702 90.5906 17.1902H90.5006C89.6806 17.1902 88.9906 17.6002 88.4306 18.4202C87.8906 19.2202 87.6206 20.3002 87.6206 21.6602C87.6206 22.8002 87.8306 23.6702 88.2506 24.2702C88.6906 24.8702 89.2006 25.1702 89.7806 25.1702ZM101.53 28.3502C100.29 28.3502 99.3003 27.9002 98.5603 27.0002C97.8203 26.1002 97.4503 24.9202 97.4503 23.4602C97.4503 21.8602 97.8203 20.3502 98.5603 18.9302C99.3003 17.4902 100.28 16.3402 101.5 15.4802C102.74 14.6002 104.05 14.1602 105.43 14.1602C105.87 14.1602 106.16 14.2502 106.3 14.4302C106.46 14.5902 106.59 14.8902 106.69 15.3302C107.11 15.2502 107.55 15.2102 108.01 15.2102C108.99 15.2102 109.48 15.5602 109.48 16.2602C109.48 16.6802 109.33 17.6802 109.03 19.2602C108.57 21.5602 108.34 23.1602 108.34 24.0602C108.34 24.3602 108.41 24.6002 108.55 24.7802C108.71 24.9602 108.91 25.0502 109.15 25.0502C109.53 25.0502 109.99 24.8102 110.53 24.3302C111.07 23.8302 111.8 23.0302 112.72 21.9302C112.96 21.6502 113.23 21.5102 113.53 21.5102C113.79 21.5102 113.99 21.6302 114.13 21.8702C114.29 22.1102 114.37 22.4402 114.37 22.8602C114.37 23.6602 114.18 24.2802 113.8 24.7202C112.98 25.7402 112.11 26.6002 111.19 27.3002C110.27 28.0002 109.38 28.3502 108.52 28.3502C107.86 28.3502 107.25 28.1302 106.69 27.6902C106.15 27.2302 105.74 26.6102 105.46 25.8302C104.42 27.5102 103.11 28.3502 101.53 28.3502ZM102.61 25.3202C103.05 25.3202 103.47 25.0602 103.87 24.5402C104.27 24.0202 104.56 23.3302 104.74 22.4702L105.85 16.9502C105.01 16.9702 104.23 17.2902 103.51 17.9102C102.81 18.5102 102.25 19.3102 101.83 20.3102C101.41 21.3102 101.2 22.3702 101.2 23.4902C101.2 24.1102 101.32 24.5702 101.56 24.8702C101.82 25.1702 102.17 25.3202 102.61 25.3202ZM117.662 28.3502C115.702 28.3502 114.172 27.8002 113.072 26.7002C111.992 25.5802 111.452 24.1102 111.452 22.2902C111.452 20.6702 111.772 19.2502 112.412 18.0302C113.052 16.8102 113.882 15.8702 114.902 15.2102C115.922 14.5502 116.992 14.2202 118.112 14.2202C119.212 14.2202 120.062 14.5502 120.662 15.2102C121.282 15.8502 121.592 16.6802 121.592 17.7002C121.592 18.5402 121.402 19.2502 121.022 19.8302C120.662 20.4102 120.182 20.7002 119.582 20.7002C119.202 20.7002 118.892 20.6102 118.652 20.4302C118.432 20.2502 118.322 20.0002 118.322 19.6802C118.322 19.5402 118.342 19.3802 118.382 19.2002C118.422 19.0202 118.452 18.8902 118.472 18.8102C118.572 18.5102 118.622 18.2302 118.622 17.9702C118.622 17.7102 118.552 17.5102 118.412 17.3702C118.292 17.2302 118.112 17.1602 117.872 17.1602C117.412 17.1602 116.982 17.3702 116.582 17.7902C116.182 18.1902 115.862 18.7402 115.622 19.4402C115.382 20.1402 115.262 20.9102 115.262 21.7502C115.262 24.0702 116.272 25.2302 118.292 25.2302C119.112 25.2302 119.992 24.9602 120.932 24.4202C121.892 23.8602 122.832 23.0302 123.752 21.9302C123.992 21.6502 124.262 21.5102 124.562 21.5102C124.822 21.5102 125.022 21.6302 125.162 21.8702C125.322 22.1102 125.402 22.4402 125.402 22.8602C125.402 23.6202 125.212 24.2402 124.832 24.7202C123.892 25.8802 122.762 26.7802 121.442 27.4202C120.142 28.0402 118.882 28.3502 117.662 28.3502ZM135.727 25.0802C136.547 25.2402 136.957 25.6902 136.957 26.4302C136.957 26.9302 136.727 27.3802 136.267 27.7802C135.827 28.1602 135.187 28.3502 134.347 28.3502C132.907 28.3502 131.727 27.9102 130.807 27.0302C129.907 26.1302 129.457 24.9602 129.457 23.5202C129.457 22.7402 129.857 22.1802 130.657 21.8402C131.537 21.4602 132.167 21.0602 132.547 20.6402C132.927 20.2002 133.117 19.6702 133.117 19.0502C133.117 18.6902 133.037 18.4202 132.877 18.2402C132.737 18.0602 132.557 17.9702 132.337 17.9702C131.797 17.9702 131.197 18.3602 130.537 19.1402C129.897 19.9202 129.297 20.9302 128.737 22.1702C128.177 23.3902 127.737 24.6502 127.417 25.9502C127.197 26.8902 126.937 27.5302 126.637 27.8702C126.357 28.1902 125.907 28.3502 125.287 28.3502C124.667 28.3502 124.207 28.1302 123.907 27.6902C123.627 27.2302 123.437 26.5302 123.337 25.5902C123.237 24.6502 123.187 23.2702 123.187 21.4502C123.187 18.3702 123.497 15.1602 124.117 11.8202C124.757 8.48019 125.687 5.68019 126.907 3.42019C128.147 1.14019 129.627 0.000193596 131.347 0.000193596C132.267 0.000193596 133.007 0.400194 133.567 1.20019C134.147 1.98019 134.437 3.00019 134.437 4.26019C134.437 6.28019 133.847 8.38019 132.667 10.5602C131.487 12.7202 129.567 15.2502 126.907 18.1502C126.847 19.1902 126.817 20.2602 126.817 21.3602C127.777 18.8602 128.877 17.0502 130.117 15.9302C131.357 14.7902 132.517 14.2202 133.597 14.2202C134.597 14.2202 135.397 14.5602 135.997 15.2402C136.617 15.9202 136.927 16.7602 136.927 17.7602C136.927 18.8602 136.647 19.8702 136.087 20.7902C135.527 21.7102 134.567 22.5302 133.207 23.2502C133.327 23.8502 133.567 24.2702 133.927 24.5102C134.307 24.7302 134.907 24.9202 135.727 25.0802ZM130.717 2.97019C130.357 2.97019 129.957 3.49019 129.517 4.53019C129.077 5.55019 128.647 6.94019 128.227 8.70019C127.827 10.4402 127.497 12.3402 127.237 14.4002C128.477 12.9402 129.497 11.3502 130.297 9.63019C131.117 7.91019 131.527 6.35019 131.527 4.95019C131.527 4.31019 131.457 3.82019 131.317 3.48019C131.177 3.14019 130.977 2.97019 130.717 2.97019ZM161.861 18.9902C162.121 18.9902 162.321 19.1202 162.461 19.3802C162.601 19.6402 162.671 19.9702 162.671 20.3702C162.671 21.3302 162.381 21.9002 161.801 22.0802C160.601 22.5002 159.281 22.7402 157.841 22.8002C157.461 24.4802 156.711 25.8302 155.591 26.8502C154.471 27.8502 153.201 28.3502 151.781 28.3502C150.581 28.3502 149.551 28.0602 148.691 27.4802C147.851 26.9002 147.211 26.1302 146.771 25.1702C146.331 24.2102 146.111 23.1702 146.111 22.0502C146.111 20.5302 146.401 19.1802 146.981 18.0002C147.561 16.8002 148.361 15.8702 149.381 15.2102C150.401 14.5302 151.531 14.1902 152.771 14.1902C154.291 14.1902 155.511 14.7202 156.431 15.7802C157.371 16.8202 157.921 18.1102 158.081 19.6502C159.021 19.5902 160.141 19.3902 161.441 19.0502C161.601 19.0102 161.741 18.9902 161.861 18.9902ZM152.021 25.1702C152.661 25.1702 153.211 24.9102 153.671 24.3902C154.151 23.8702 154.471 23.1202 154.631 22.1402C154.011 21.7202 153.531 21.1702 153.191 20.4902C152.871 19.8102 152.711 19.0902 152.711 18.3302C152.711 18.0102 152.741 17.6902 152.801 17.3702H152.651C151.851 17.3702 151.181 17.7602 150.641 18.5402C150.121 19.3002 149.861 20.3802 149.861 21.7802C149.861 22.8802 150.071 23.7202 150.491 24.3002C150.931 24.8802 151.441 25.1702 152.021 25.1702ZM162.226 28.3502C161.466 28.3502 160.926 27.9502 160.606 27.1502C160.306 26.3502 160.156 25.0702 160.156 23.3102C160.156 20.7102 160.526 18.2402 161.266 15.9002C161.446 15.3202 161.736 14.9002 162.136 14.6402C162.556 14.3602 163.136 14.2202 163.876 14.2202C164.276 14.2202 164.556 14.2702 164.716 14.3702C164.876 14.4702 164.956 14.6602 164.956 14.9402C164.956 15.2602 164.806 15.9802 164.506 17.1002C164.306 17.9002 164.146 18.6002 164.026 19.2002C163.906 19.8002 163.806 20.5402 163.726 21.4202C164.386 19.7002 165.126 18.3002 165.946 17.2202C166.766 16.1402 167.566 15.3702 168.346 14.9102C169.146 14.4502 169.876 14.2202 170.536 14.2202C171.176 14.2202 171.656 14.3902 171.976 14.7302C172.316 15.0502 172.486 15.5302 172.486 16.1702C172.486 16.6902 172.376 17.6702 172.156 19.1102C171.956 20.3302 171.796 21.4902 171.676 22.5902C171.556 23.6702 171.496 24.8802 171.496 26.2202C171.496 26.9802 171.336 27.5302 171.016 27.8702C170.716 28.1902 170.216 28.3502 169.516 28.3502C168.856 28.3502 168.376 28.1802 168.076 27.8402C167.776 27.5002 167.626 26.9902 167.626 26.3102C167.626 25.5102 167.766 24.1902 168.046 22.3502C168.286 20.7502 168.406 19.7302 168.406 19.2902C168.406 18.9702 168.296 18.8102 168.076 18.8102C167.816 18.8102 167.446 19.1502 166.966 19.8302C166.506 20.4902 166.026 21.3702 165.526 22.4702C165.046 23.5702 164.656 24.7302 164.356 25.9502C164.136 26.8902 163.876 27.5302 163.576 27.8702C163.296 28.1902 162.846 28.3502 162.226 28.3502ZM195.947 21.5102C196.207 21.5102 196.407 21.6302 196.547 21.8702C196.707 22.1102 196.787 22.4402 196.787 22.8602C196.787 23.6602 196.597 24.2802 196.217 24.7202C195.357 25.7802 194.417 26.6502 193.397 27.3302C192.377 28.0102 191.207 28.3502 189.887 28.3502C185.807 28.3502 183.767 25.4802 183.767 19.7402C183.767 18.8602 183.797 17.9702 183.857 17.0702H182.687C182.087 17.0702 181.677 16.9602 181.457 16.7402C181.257 16.5202 181.157 16.1702 181.157 15.6902C181.157 14.5702 181.607 14.0102 182.507 14.0102H184.217C184.557 11.8102 185.077 9.80019 185.777 7.98019C186.477 6.16019 187.317 4.71019 188.297 3.63019C189.297 2.55019 190.367 2.01019 191.507 2.01019C192.347 2.01019 193.007 2.38019 193.487 3.12019C193.967 3.86019 194.207 4.79019 194.207 5.91019C194.207 9.0102 192.907 11.7102 190.307 14.0102H193.667C193.987 14.0102 194.217 14.0802 194.357 14.2202C194.497 14.3602 194.567 14.6202 194.567 15.0002C194.567 16.3802 193.437 17.0702 191.177 17.0702H187.517C187.477 18.0702 187.457 18.8502 187.457 19.4102C187.457 21.4902 187.697 22.9502 188.177 23.7902C188.677 24.6302 189.457 25.0502 190.517 25.0502C191.377 25.0502 192.137 24.7902 192.797 24.2702C193.457 23.7502 194.237 22.9702 195.137 21.9302C195.377 21.6502 195.647 21.5102 195.947 21.5102ZM190.697 4.8902C190.397 4.8902 190.057 5.27019 189.677 6.03019C189.317 6.77019 188.967 7.81019 188.627 9.15019C188.307 10.4702 188.037 11.9402 187.817 13.5602C188.997 12.5402 189.877 11.4002 190.457 10.1402C191.057 8.86019 191.357 7.70019 191.357 6.66019C191.357 5.48019 191.137 4.8902 190.697 4.8902ZM196.474 28.3502C195.714 28.3502 195.174 27.9502 194.854 27.1502C194.554 26.3502 194.404 25.0702 194.404 23.3102C194.404 20.7102 194.774 18.2402 195.514 15.9002C195.694 15.3202 195.984 14.9002 196.384 14.6402C196.804 14.3602 197.384 14.2202 198.124 14.2202C198.524 14.2202 198.804 14.2702 198.964 14.3702C199.124 14.4702 199.204 14.6602 199.204 14.9402C199.204 15.2602 199.054 15.9802 198.754 17.1002C198.554 17.9002 198.394 18.6002 198.274 19.2002C198.154 19.8002 198.054 20.5402 197.974 21.4202C198.634 19.7002 199.374 18.3002 200.194 17.2202C201.014 16.1402 201.814 15.3702 202.594 14.9102C203.394 14.4502 204.124 14.2202 204.784 14.2202C206.084 14.2202 206.734 14.8702 206.734 16.1702C206.734 16.4302 206.644 17.0602 206.464 18.0602C206.304 18.8602 206.224 19.3602 206.224 19.5602C206.224 20.2602 206.474 20.6102 206.974 20.6102C207.534 20.6102 208.254 20.1702 209.134 19.2902C209.394 19.0302 209.664 18.9002 209.944 18.9002C210.204 18.9002 210.404 19.0202 210.544 19.2602C210.704 19.4802 210.784 19.7802 210.784 20.1602C210.784 20.9002 210.584 21.4802 210.184 21.9002C209.624 22.4802 208.964 22.9802 208.204 23.4002C207.464 23.8002 206.674 24.0002 205.834 24.0002C204.774 24.0002 203.964 23.7302 203.404 23.1902C202.864 22.6502 202.594 21.9202 202.594 21.0002C202.594 20.7002 202.624 20.4002 202.684 20.1002C202.724 19.7002 202.744 19.4302 202.744 19.2902C202.744 18.9702 202.634 18.8102 202.414 18.8102C202.114 18.8102 201.714 19.1502 201.214 19.8302C200.734 20.4902 200.254 21.3702 199.774 22.4702C199.294 23.5702 198.904 24.7302 198.604 25.9502C198.384 26.8902 198.124 27.5302 197.824 27.8702C197.544 28.1902 197.094 28.3502 196.474 28.3502ZM211.687 28.3502C210.447 28.3502 209.457 27.9002 208.717 27.0002C207.977 26.1002 207.607 24.9202 207.607 23.4602C207.607 21.8602 207.977 20.3502 208.717 18.9302C209.457 17.4902 210.437 16.3402 211.657 15.4802C212.897 14.6002 214.207 14.1602 215.587 14.1602C216.027 14.1602 216.317 14.2502 216.457 14.4302C216.617 14.5902 216.747 14.8902 216.847 15.3302C217.267 15.2502 217.707 15.2102 218.167 15.2102C219.147 15.2102 219.637 15.5602 219.637 16.2602C219.637 16.6802 219.487 17.6802 219.187 19.2602C218.727 21.5602 218.497 23.1602 218.497 24.0602C218.497 24.3602 218.567 24.6002 218.707 24.7802C218.867 24.9602 219.067 25.0502 219.307 25.0502C219.687 25.0502 220.147 24.8102 220.687 24.3302C221.227 23.8302 221.957 23.0302 222.877 21.9302C223.117 21.6502 223.387 21.5102 223.687 21.5102C223.947 21.5102 224.147 21.6302 224.287 21.8702C224.447 22.1102 224.527 22.4402 224.527 22.8602C224.527 23.6602 224.337 24.2802 223.957 24.7202C223.137 25.7402 222.267 26.6002 221.347 27.3002C220.427 28.0002 219.537 28.3502 218.677 28.3502C218.017 28.3502 217.407 28.1302 216.847 27.6902C216.307 27.2302 215.897 26.6102 215.617 25.8302C214.577 27.5102 213.267 28.3502 211.687 28.3502ZM212.767 25.3202C213.207 25.3202 213.627 25.0602 214.027 24.5402C214.427 24.0202 214.717 23.3302 214.897 22.4702L216.007 16.9502C215.167 16.9702 214.387 17.2902 213.667 17.9102C212.967 18.5102 212.407 19.3102 211.987 20.3102C211.567 21.3102 211.357 22.3702 211.357 23.4902C211.357 24.1102 211.477 24.5702 211.717 24.8702C211.977 25.1702 212.327 25.3202 212.767 25.3202ZM227.818 28.3502C225.858 28.3502 224.328 27.8002 223.228 26.7002C222.148 25.5802 221.608 24.1102 221.608 22.2902C221.608 20.6702 221.928 19.2502 222.568 18.0302C223.208 16.8102 224.038 15.8702 225.058 15.2102C226.078 14.5502 227.148 14.2202 228.268 14.2202C229.368 14.2202 230.218 14.5502 230.818 15.2102C231.438 15.8502 231.748 16.6802 231.748 17.7002C231.748 18.5402 231.558 19.2502 231.178 19.8302C230.818 20.4102 230.338 20.7002 229.738 20.7002C229.358 20.7002 229.048 20.6102 228.808 20.4302C228.588 20.2502 228.478 20.0002 228.478 19.6802C228.478 19.5402 228.498 19.3802 228.538 19.2002C228.578 19.0202 228.608 18.8902 228.628 18.8102C228.728 18.5102 228.778 18.2302 228.778 17.9702C228.778 17.7102 228.708 17.5102 228.568 17.3702C228.448 17.2302 228.268 17.1602 228.028 17.1602C227.568 17.1602 227.138 17.3702 226.738 17.7902C226.338 18.1902 226.018 18.7402 225.778 19.4402C225.538 20.1402 225.418 20.9102 225.418 21.7502C225.418 24.0702 226.428 25.2302 228.448 25.2302C229.268 25.2302 230.148 24.9602 231.088 24.4202C232.048 23.8602 232.988 23.0302 233.908 21.9302C234.148 21.6502 234.418 21.5102 234.718 21.5102C234.978 21.5102 235.178 21.6302 235.318 21.8702C235.478 22.1102 235.558 22.4402 235.558 22.8602C235.558 23.6202 235.368 24.2402 234.988 24.7202C234.048 25.8802 232.918 26.7802 231.598 27.4202C230.298 28.0402 229.038 28.3502 227.818 28.3502ZM245.883 25.0802C246.703 25.2402 247.113 25.6902 247.113 26.4302C247.113 26.9302 246.883 27.3802 246.423 27.7802C245.983 28.1602 245.343 28.3502 244.503 28.3502C243.063 28.3502 241.883 27.9102 240.963 27.0302C240.063 26.1302 239.613 24.9602 239.613 23.5202C239.613 22.7402 240.013 22.1802 240.813 21.8402C241.693 21.4602 242.323 21.0602 242.703 20.6402C243.083 20.2002 243.273 19.6702 243.273 19.0502C243.273 18.6902 243.193 18.4202 243.033 18.2402C242.893 18.0602 242.713 17.9702 242.493 17.9702C241.953 17.9702 241.353 18.3602 240.693 19.1402C240.053 19.9202 239.453 20.9302 238.893 22.1702C238.333 23.3902 237.893 24.6502 237.573 25.9502C237.353 26.8902 237.093 27.5302 236.793 27.8702C236.513 28.1902 236.063 28.3502 235.443 28.3502C234.823 28.3502 234.363 28.1302 234.063 27.6902C233.783 27.2302 233.593 26.5302 233.493 25.5902C233.393 24.6502 233.343 23.2702 233.343 21.4502C233.343 18.3702 233.653 15.1602 234.273 11.8202C234.913 8.48019 235.843 5.68019 237.063 3.42019C238.303 1.14019 239.783 0.000193596 241.503 0.000193596C242.423 0.000193596 243.163 0.400194 243.723 1.20019C244.303 1.98019 244.593 3.00019 244.593 4.26019C244.593 6.28019 244.003 8.38019 242.823 10.5602C241.643 12.7202 239.723 15.2502 237.063 18.1502C237.003 19.1902 236.973 20.2602 236.973 21.3602C237.933 18.8602 239.033 17.0502 240.273 15.9302C241.513 14.7902 242.673 14.2202 243.753 14.2202C244.753 14.2202 245.553 14.5602 246.153 15.2402C246.773 15.9202 247.083 16.7602 247.083 17.7602C247.083 18.8602 246.803 19.8702 246.243 20.7902C245.683 21.7102 244.723 22.5302 243.363 23.2502C243.483 23.8502 243.723 24.2702 244.083 24.5102C244.463 24.7302 245.063 24.9202 245.883 25.0802ZM240.873 2.97019C240.513 2.97019 240.113 3.49019 239.673 4.53019C239.233 5.55019 238.803 6.94019 238.383 8.70019C237.983 10.4402 237.653 12.3402 237.393 14.4002C238.633 12.9402 239.653 11.3502 240.453 9.63019C241.273 7.91019 241.683 6.35019 241.683 4.95019C241.683 4.31019 241.613 3.82019 241.473 3.48019C241.333 3.14019 241.133 2.97019 240.873 2.97019Z" fill="#6B7280"/>
</svg>
